<svg height="512pt" viewBox="-26 0 512 512" width="512pt" xmlns="http://www.w3.org/2000/svg" xmlns:xlink="http://www.w3.org/1999/xlink"><linearGradient id="a"><stop offset="0" stop-color="#662d91"/><stop offset=".437" stop-color="#3873b3"/><stop offset="1" stop-color="#00c9dd"/></linearGradient><linearGradient id="b" gradientTransform="matrix(1.069671 0 0 -1.069671 -25.600428 502.793345)" gradientUnits="userSpaceOnUse" x1="61.1637" x2="454.0889" xlink:href="#a" y1="408.8812" y2="15.956"/><linearGradient id="c" gradientTransform="matrix(1.069671 0 0 -1.069671 -25.600428 502.793345)" gradientUnits="userSpaceOnUse" x1="95.0682" x2="487.9934" xlink:href="#a" y1="442.7857" y2="49.8605"/><linearGradient id="d" gradientTransform="matrix(1.069671 0 0 -1.069671 -25.600428 502.793345)" gradientUnits="userSpaceOnUse" x1="190.7986" x2="583.7238" xlink:href="#a" y1="538.5161" y2="145.5908"/><path d="m17.066406 512h426.667969c9.425781 0 17.066406-7.640625 17.066406-17.066406v-477.867188c0-9.425781-7.640625-17.066406-17.066406-17.066406h-426.667969c-9.425781 0-17.066406 7.640625-17.066406 17.066406v477.867188c0 9.425781 7.640625 17.066406 17.066406 17.066406zm0-494.933594h426.667969v128h-426.667969zm0 145.066406h426.667969v34.132813h-426.667969zm0 51.199219h426.667969v281.601563h-426.667969zm0 0" fill="url(#b)"/><path d="m179.199219 34.132812h-102.398438c-14.140625 0-25.601562 11.460938-25.601562 25.601563v42.664063c0 14.140624 11.460937 25.601562 25.601562 25.601562h102.398438c14.136719 0 25.601562-11.460938 25.601562-25.601562v-42.664063c0-14.140625-11.464843-25.601563-25.601562-25.601563zm8.535156 68.265626c0 4.714843-3.824219 8.535156-8.535156 8.535156h-102.398438c-4.714843 0-8.535156-3.820313-8.535156-8.535156v-42.664063c0-4.714844 3.820313-8.535156 8.535156-8.535156h102.398438c4.710937 0 8.535156 3.820312 8.535156 8.535156zm0 0" fill="url(#c)"/><path d="m384 34.132812h-102.402344c-14.136718 0-25.597656 11.460938-25.597656 25.601563v42.664063c0 14.140624 11.460938 25.601562 25.597656 25.601562h102.402344c14.136719 0 25.597656-11.460938 25.597656-25.601562v-42.664063c0-14.140625-11.460937-25.601563-25.597656-25.601563zm8.53125 68.265626c0 4.714843-3.820312 8.535156-8.53125 8.535156h-102.402344c-4.710937 0-8.53125-3.820313-8.53125-8.535156v-42.664063c0-4.714844 3.820313-8.535156 8.53125-8.535156h102.402344c4.710938 0 8.53125 3.820312 8.53125 8.535156zm0 0" fill="url(#d)"/></svg>