<?xml version="1.0" encoding="utf-8"?>
<!-- Generator: Adobe Illustrator 19.0.0, SVG Export Plug-In . SVG Version: 6.00 Build 0)  -->
<svg version="1.1" id="Capa_1" xmlns="http://www.w3.org/2000/svg" xmlns:xlink="http://www.w3.org/1999/xlink" x="0px" y="0px"
	 viewBox="156 -219 512 512" style="enable-background:new 156 -219 512 512;" xml:space="preserve">
<style type="text/css">
	.st0{fill:#FFC850;}
	.st1{fill:#EBAF4B;}
	.st2{fill:#FFDC64;}
	.st3{fill:#FF8087;}
	.st4{fill:#5D5360;}
	.st5{fill:#E1A546;}
	.st6{fill:#4B3F4E;}
	.st7{fill:#FFFFFF;}
	.st8{fill:#E6646E;}
</style>
<path class="st0" d="M600.4-215.3c10.8-8.8,27-1.1,27,12.9v222L445.1-88.1L600.4-215.3z"/>
<path class="st1" d="M610.8,9.8l-111-65.6L592.3-160c6.5-7.3,18.5-2.7,18.5,7V9.8z"/>
<path class="st0" d="M223.6-215.3c-10.8-8.8-27-1.1-27,12.9v222L378.9-88.1L223.6-215.3z"/>
<path class="st1" d="M213.2,9.8l111-65.6L231.7-160c-6.5-7.3-18.5-2.7-18.5,7V9.8z"/>
<ellipse class="st2" cx="412" cy="73.5" rx="232" ry="219.5"/>
<path class="st3" d="M445.1,210.2v16.6c0,18.3-14.8,33.1-33.1,33.1l0,0c-18.3,0-33.1-14.8-33.1-33.1v-16.6l33.1-16.6L445.1,210.2z"
	/>
<path class="st4" d="M430.3,124.9h-36.6c-7.9,0-12.3,9.2-7.3,15.3l18.3,22.6c3.8,4.7,10.9,4.7,14.6,0l18.3-22.6
	C442.6,134,438.2,124.9,430.3,124.9z"/>
<g>
	<path class="st5" d="M635.7,218.4c-1.3,0-2.6-0.3-3.8-0.9c-50.1-26-128.5-41.5-129.3-41.7c-4.5-0.9-7.4-5.2-6.5-9.7
		c0.9-4.5,5.2-7.4,9.7-6.5c3.3,0.6,81.5,16.1,133.8,43.2c4.1,2.1,5.6,7.1,3.5,11.2C641.6,216.8,638.7,218.4,635.7,218.4z"/>
	<path class="st5" d="M652.3,160.5c-0.7,0-1.4-0.1-2.2-0.3c-46.4-12.5-130.9-10.1-131.7-10.1c-4.7,0.1-8.4-3.5-8.5-8
		c-0.1-4.6,3.5-8.4,8-8.5c3.6-0.1,87.7-2.5,136.5,10.6c4.4,1.2,7,5.7,5.8,10.2C659.3,158,655.9,160.4,652.3,160.5z"/>
</g>
<path class="st0" d="M470,276.4c-128.1,0-232-98.3-232-219.5c0-89,56-165.6,136.5-200.1C264.2-126.2,180-35.7,180,73.5
	C180,194.7,283.9,293,412,293c34,0,66.3-7,95.4-19.5C495.3,275.4,482.7,276.4,470,276.4z"/>
<g>
	<path class="st5" d="M188.3,218.4c-3,0-5.9-1.6-7.4-4.5c-2.1-4.1-0.5-9.1,3.5-11.2c52.2-27.2,130.5-42.6,133.8-43.2
		c4.5-0.9,8.8,2.1,9.7,6.5c0.9,4.5-2.1,8.8-6.5,9.7c-0.8,0.2-79.2,15.6-129.3,41.7C190.9,218.1,189.6,218.4,188.3,218.4z"/>
	<path class="st5" d="M171.7,160.5c-3.7,0-7-2.4-8-6.1c-1.2-4.4,1.4-9,5.8-10.2c48.8-13.1,132.9-10.7,136.5-10.6
		c4.6,0.1,8.2,4,8,8.5c-0.1,4.6-4.1,8.2-8.5,8c-0.8,0-85.3-2.4-131.7,10.1C173.2,160.4,172.5,160.5,171.7,160.5z"/>
</g>
<path class="st6" d="M316.7,102.5L316.7,102.5c-15.9,0-29-13-29-29V56.9c0-15.9,13-29,29-29l0,0c15.9,0,29,13,29,29v16.6
	C345.7,89.4,332.7,102.5,316.7,102.5z"/>
<path class="st4" d="M316.7,27.9c-1.4,0-2.8,0.2-4.1,0.4v41c0,9.2,7.4,16.6,16.6,16.6s16.6-7.4,16.6-16.6V56.9
	C345.7,40.9,332.7,27.9,316.7,27.9z"/>
<circle class="st7" cx="316.7" cy="48.6" r="12.4"/>
<path class="st6" d="M507.3,102.5L507.3,102.5c-15.9,0-29-13-29-29V56.9c0-15.9,13-29,29-29l0,0c15.9,0,29,13,29,29v16.6
	C536.3,89.4,523.2,102.5,507.3,102.5z"/>
<path class="st4" d="M507.3,27.9c-1.4,0-2.8,0.2-4.1,0.4v41c0,9.2,7.4,16.6,16.6,16.6s16.6-7.4,16.6-16.6V56.9
	C536.3,40.9,523.2,27.9,507.3,27.9z"/>
<circle class="st7" cx="507.3" cy="48.6" r="12.4"/>
<path class="st6" d="M418.4,163.1l-18.3-36.2c-0.3-0.7-0.5-1.4-0.8-2.1h-5.6c-7.9,0-12.3,9.2-7.3,15.3l18.3,22.6
	c3.6,4.4,10,4.5,13.9,0.6C418.5,163.3,418.5,163.2,418.4,163.1z"/>
<path class="st8" d="M412,193.6l-33.1,16.6v16.6c0,2.6,0.4,5.2,1,7.6c8.3-1,16.4-3.4,23.9-7.2v7.8c0,4.6,3.7,8.3,8.3,8.3
	c4.6,0,8.3-3.7,8.3-8.3v-7.8c7.5,3.7,15.6,6.1,23.9,7.2c0.6-2.5,1-5,1-7.6v-16.6L412,193.6z"/>
<path class="st1" d="M453.4,218.4c-11.7,0-23-3.5-32.7-10.1c-5.2-3.5-12.4-3.5-17.5,0c-9.6,6.6-20.9,10.1-32.6,10.1
	c-14.3,0-28-5.3-38.7-14.9c-3.4-3.1-3.7-8.3-0.6-11.7s8.3-3.7,11.7-0.6c13.9,12.5,35.7,13.8,50.9,3.4c10.8-7.4,25.4-7.4,36.2,0
	c15.2,10.4,37,9,50.9-3.4c3.4-3,8.6-2.8,11.7,0.6c3.1,3.4,2.8,8.6-0.6,11.7C481.4,213.2,467.7,218.4,453.4,218.4z"/>
</svg>
