<?xml version="1.0" encoding="utf-8"?>
<!-- Generator: Adobe Illustrator 19.0.0, SVG Export Plug-In . SVG Version: 6.00 Build 0)  -->
<svg version="1.1" id="Capa_1" xmlns="http://www.w3.org/2000/svg" xmlns:xlink="http://www.w3.org/1999/xlink" x="0px" y="0px"
	 viewBox="156 -219 512 512" style="enable-background:new 156 -219 512 512;" xml:space="preserve">
<style type="text/css">
	.st0{fill:#F5DCB4;}
	.st1{fill:#965A50;}
	.st2{fill:#4B3F4E;}
	.st3{fill:#5D5360;}
	.st4{fill:#FFFFFF;}
	.st5{fill:#824641;}
	.st6{fill:#E7C9A5;}
	.st7{fill:#BC8E78;}
	.st8{fill:#FF8087;}
	.st9{fill:#E6646E;}
	.st10{fill:#D4AF91;}
</style>
<path class="st0" d="M593.7-173.6h-82.6c-29.9,11.9-36.6-8.3-99.1-8.3s-69.2,20.1-99.1,8.3h-82.6l-11,207.5
	c6.9,81.5,57.5,125.9,97.4,142.1h190.6c39.9-16.2,90.5-60.6,97.4-142.1L593.7-173.6z"/>
<path class="st1" d="M511.1-173.6c93,27.8,42.4,171.4,102.2,233.4c8.6,8.9,23.8,5,27.4-6.9c4.7-15.7,9.5-40.4,8.7-75.8
	c-1-48.5,18.6-51.6,18.6-51.6s-24.8-115.6-99.1-115.6C544.1-190.1,511.1-173.6,511.1-173.6z"/>
<path class="st2" d="M325.3,41.1L325.3,41.1c-15.9,0-28.9-13-28.9-28.9V-4.3c0-15.9,13-28.9,28.9-28.9l0,0c15.9,0,28.9,13,28.9,28.9
	v16.5C354.2,28.1,341.2,41.1,325.3,41.1z"/>
<path class="st3" d="M325.3-33.2c-1.4,0-2.8,0.2-4.1,0.4V8.1c0,9.1,7.4,16.5,16.5,16.5c9.1,0,16.5-7.4,16.5-16.5V-4.3
	C354.2-20.2,341.2-33.2,325.3-33.2z"/>
<circle class="st4" cx="325.3" cy="-12.5" r="12.4"/>
<path class="st2" d="M498.7,41.1L498.7,41.1c-15.9,0-28.9-13-28.9-28.9V-4.3c0-15.9,13-28.9,28.9-28.9l0,0c15.9,0,28.9,13,28.9,28.9
	v16.5C527.6,28.1,514.6,41.1,498.7,41.1z"/>
<path class="st3" d="M498.7-33.2c-1.4,0-2.8,0.2-4.1,0.4V8.1c0,9.1,7.4,16.5,16.5,16.5c9.1,0,16.5-7.4,16.5-16.5V-4.3
	C527.6-20.2,514.6-33.2,498.7-33.2z"/>
<circle class="st4" cx="498.7" cy="-12.5" r="12.4"/>
<path class="st5" d="M613.3,59.8c8.6,8.9,23.8,5,27.4-6.9c2.7-9,5.4-21.1,7.1-36.3c-16.2-8.1-30.1-33.9-38.6-77.7
	c-15.5-79.5-37.2-123.9-98.1-112.5C604.1-145.8,553.5-2.2,613.3,59.8z"/>
<path class="st6" d="M316.7,176h39.1c0,0-68.7-46.1-80.1-127.7c-22.1-158.6,20-206.1,56.3-218.2c-5.8,0.2-11.7-0.8-19.2-3.7h-82.6
	l-11,207.5C226.2,115.5,276.8,159.8,316.7,176z"/>
<path class="st1" d="M312.9-173.6c-93,27.8-42.4,171.4-102.2,233.4c-8.6,8.9-23.8,5-27.4-6.9c-4.7-15.7-9.5-40.4-8.7-75.8
	c1-48.5-18.6-51.6-18.6-51.6s24.8-115.6,99.1-115.6C279.9-190.1,312.9-173.6,312.9-173.6z"/>
<path class="st5" d="M310.1-174.9c-8.4-3.9-34.5-15.2-55-15.2c-74.3,0-99.1,115.6-99.1,115.6s19.6,3.1,18.6,51.6c0,0.6,0,1.2,0,1.9
	C222.1-201.3,295.1-181.2,310.1-174.9z"/>
<ellipse class="st7" cx="412" cy="181.5" rx="90.8" ry="66.1"/>
<path class="st8" d="M370.7,181.5v41.3c0,22.8,18.5,41.3,41.3,41.3s41.3-18.5,41.3-41.3v-41.3H370.7z"/>
<path class="st9" d="M370.7,213.8c11.9-1.5,23.2-5.1,33-10.6v11.4c0,4.6,3.7,8.3,8.3,8.3s8.3-3.7,8.3-8.3V203
	c9.7,5.6,21,9.2,33,10.7v-32.3h-82.6V213.8z"/>
<path class="st10" d="M465.7,107.2H358.3c-34.2,0-61.9,20.3-61.9,45.4s27.7,45.4,61.9,45.4c17.2,0,32.8-5.2,44-13.5
	c2.8-2.1,6.3-3.2,9.7-3.2c3.4,0,6.8,1.1,9.7,3.2c11.2,8.3,26.8,13.5,44,13.5c34.2,0,61.9-20.3,61.9-45.4
	C527.6,127.5,499.9,107.2,465.7,107.2z"/>
<path class="st3" d="M412,74.2c27.4,0,49.5,14.8,49.5,33c0,17.6-20.8,26.9-35.9,33.7c-8.7,4-18.7,4-27.4,0
	c-15-6.9-35.9-16.1-35.9-33.7C362.5,89,384.6,74.2,412,74.2z"/>
<path class="st2" d="M387,98.2c-1.2-10.4,6.2-21.5,6.2-21.5c-18,4.9-30.7,16.8-30.7,30.5c0,17.6,20.8,26.9,35.9,33.7
	c8.7,4,18.7,4,27.4,0c3.2-1.5,6.7-3.1,10.2-4.8C415.6,132.5,389.3,119.1,387,98.2z"/>
</svg>
