<svg height="480pt" viewBox="0 0 480 480" width="480pt" xmlns="http://www.w3.org/2000/svg"><path d="m352 240c0-61.855469-50.144531-112-112-112s-112 50.144531-112 112zm0 0" fill="#d1910d"/><path d="m319.601562 240c-4.121093-58.105469-52.449218-104-111.601562-104-3.679688 0-7.320312.199219-10.910156.550781-40.554688 16.839844-69.089844 56.800781-69.089844 103.449219zm0 0" fill="#e8b21a"/><path d="m0 96v-96h480v480h-96v-384zm0 0" fill="#3b7302"/><path d="m0 96h384v384h64v-456h-448zm0 0" fill="#97bf04"/><path d="m0 160 320 320h-320zm0 0" fill="#d67200"/><path d="m280 480-256-256v256zm0 0" fill="#fbb03b"/><path d="m56 296 128 128h-128zm0 0" fill="#fff"/><path d="m0 216h24v16h-24zm0 0" fill="#f7931e"/><path d="m0 248h24v16h-24zm0 0" fill="#f7931e"/><path d="m0 280h24v16h-24zm0 0" fill="#f7931e"/><path d="m0 312h24v16h-24zm0 0" fill="#f7931e"/><path d="m0 344h24v16h-24zm0 0" fill="#f7931e"/><path d="m0 376h24v16h-24zm0 0" fill="#f7931e"/><path d="m0 408h24v16h-24zm0 0" fill="#f7931e"/><path d="m0 440h24v16h-24zm0 0" fill="#f7931e"/><path d="m40 456h16v24h-16zm0 0" fill="#f7931e"/><path d="m72 456h16v24h-16zm0 0" fill="#f7931e"/><path d="m104 456h16v24h-16zm0 0" fill="#f7931e"/><path d="m136 456h16v24h-16zm0 0" fill="#f7931e"/><path d="m168 456h16v24h-16zm0 0" fill="#f7931e"/><path d="m200 456h16v24h-16zm0 0" fill="#f7931e"/><path d="m232 456h16v24h-16zm0 0" fill="#f7931e"/><path d="m264 456h16v24h-16zm0 0" fill="#f7931e"/><g fill="#1c4002"><path d="m24 0h16v40h-16zm0 0"/><path d="m56 0h16v40h-16zm0 0"/><path d="m88 0h16v40h-16zm0 0"/><path d="m120 0h16v40h-16zm0 0"/><path d="m152 0h16v56h-16zm0 0"/><path d="m184 0h16v40h-16zm0 0"/><path d="m216 0h16v40h-16zm0 0"/><path d="m248 0h16v40h-16zm0 0"/><path d="m280 0h16v40h-16zm0 0"/><path d="m312 0h16v56h-16zm0 0"/><path d="m344 0h16v40h-16zm0 0"/><path d="m376 0h16v40h-16zm0 0"/><path d="m408 0h16v40h-16zm0 0"/><path d="m440 0h16v24h-16zm0 0"/><path d="m440 440h40v16h-40zm0 0"/><path d="m440 408h40v16h-40zm0 0"/><path d="m440 376h40v16h-40zm0 0"/><path d="m440 344h40v16h-40zm0 0"/><path d="m424 312h56v16h-56zm0 0"/><path d="m440 280h40v16h-40zm0 0"/><path d="m440 248h40v16h-40zm0 0"/><path d="m440 216h40v16h-40zm0 0"/><path d="m440 184h40v16h-40zm0 0"/><path d="m424 152h56v16h-56zm0 0"/><path d="m440 112h40v16h-40zm0 0"/><path d="m440 80h40v16h-40zm0 0"/><path d="m456 48h24v16h-24zm0 0"/></g><path d="m280 240c0-22.089844-17.910156-40-40-40s-40 17.910156-40 40zm0 0" fill="#fff"/></svg>