<svg height="480pt" viewBox="0 -52 480 480" width="480pt" xmlns="http://www.w3.org/2000/svg"><path d="m8 12v356h32v-356c0-2.210938-1.789062-4-4-4h-24c-2.210938 0-4 1.789062-4 4zm0 0" fill="#96a5d4"/><path d="m40 216h428c2.210938 0 4 1.789062 4 4v52h-432zm0 0" fill="#8299ce"/><path d="m48 144h144v72h-152v-64c0-4.417969 3.582031-8 8-8zm0 0" fill="#f2f2f2"/><path d="m264 144h184c4.417969 0 8 3.582031 8 8v64h-192zm0 0" fill="#0378a3"/><path d="m440 272h32v96h-32zm0 0" fill="#96a5d4"/><path d="m200 120h56c4.417969 0 8 3.582031 8 8v88h-72v-88c0-4.417969 3.582031-8 8-8zm0 0" fill="#06aae9"/><path d="m86 96h52c12.148438 0 22 9.851562 22 22v4c0 12.148438-9.851562 22-22 22h-52c-12.148438 0-22-9.851562-22-22v-4c0-12.148438 9.851562-22 22-22zm0 0" fill="#e6e6e6"/><path d="m472 208h-8v-64c0-4.417969-3.582031-8-8-8h-184v-16c0-4.417969-3.582031-8-8-8h-72c-4.417969 0-8 3.582031-8 8v16h-19.632812c2.351562-4.292969 3.597656-9.105469 3.632812-14v-4c-.023438-16.558594-13.441406-29.976562-30-30h-52c-16.558594.023438-29.976562 13.441406-30 30v4c.035156 4.894531 1.28125 9.707031 3.632812 14h-11.632812v-128c0-4.417969-3.582031-8-8-8h-32c-4.417969 0-8 3.582031-8 8v360c0 4.417969 3.582031 8 8 8h32c4.417969 0 8-3.582031 8-8v-88h384v88c0 4.417969 3.582031 8 8 8h32c4.417969 0 8-3.582031 8-8v-152c0-4.417969-3.582031-8-8-8zm-24-56v56h-176v-56zm-248-24h56v80h-56zm-128-6v-4c.007812-7.726562 6.273438-13.992188 14-14h52c7.726562.007812 13.992188 6.273438 14 14v4c-.007812 7.726562-6.273438 13.992188-14 14h-52c-7.726562-.007812-13.992188-6.273438-14-14zm14 30h98v56h-136v-56zm-54 208h-16v-344h16zm16-136h416v40h-416zm416 136h-16v-80h16zm0 0"/></svg>