<?xml version="1.0" encoding="iso-8859-1"?>
<!-- Generator: Adobe Illustrator 19.0.0, SVG Export Plug-In . SVG Version: 6.00 Build 0)  -->
<svg version="1.1" id="Layer_1" xmlns="http://www.w3.org/2000/svg" xmlns:xlink="http://www.w3.org/1999/xlink" x="0px" y="0px"
	 viewBox="0 0 512 512" style="enable-background:new 0 0 512 512;" xml:space="preserve">
<g transform="translate(1 1)">
	<polygon style="fill:#FFDD09;" points="65.56,487.107 22.893,444.44 444.44,22.893 487.107,65.56 	"/>
	<polygon style="fill:#FFFFFF;" points="445.293,22.04 429.933,7.533 7.533,429.933 22.893,444.44 	"/>
	<polygon style="fill:#FD9808;" points="487.96,64.707 65.56,487.107 80.067,502.467 502.467,80.067 	"/>
	<path style="fill:#FCC309;" d="M441.88,103.96c10.24-10.24,10.24-26.453,0-35.84c-10.24-10.24-26.453-10.24-35.84,0
		c-10.24,10.24-10.24,26.453,0,35.84C415.427,114.2,431.64,114.2,441.88,103.96"/>
	<path d="M80.067,511c-2.56,0-4.267-0.853-5.973-2.56L1.56,435.907C-0.147,434.2-1,432.493-1,429.933c0-2.56,0.853-4.267,2.56-5.973
		l422.4-422.4c3.413-3.413,8.533-3.413,11.947,0l72.533,72.533c3.413,3.413,3.413,8.533,0,11.947l-422.4,422.4
		C84.333,510.147,82.627,511,80.067,511z M19.48,429.933l60.587,60.587L490.52,80.067L429.933,19.48L19.48,429.933z"/>
	<path d="M423.96,120.173c-8.533,0-17.067-3.413-23.893-10.24c-13.653-13.653-13.653-34.987,0-48.64s34.987-13.653,48.64,0
		c6.827,6.827,10.24,15.36,10.24,23.893s-3.413,17.92-10.24,23.893l0,0l0,0C441.027,116.76,432.493,120.173,423.96,120.173z
		 M423.96,68.973c-4.267,0-8.533,1.707-11.947,5.12c-6.827,6.827-6.827,17.067,0,23.893c6.827,6.827,17.067,6.827,23.893,0l0,0
		c3.413-3.413,5.12-7.68,5.12-11.947c0-4.267-1.707-8.533-5.12-11.947C432.493,70.68,428.227,68.973,423.96,68.973z"/>
	<path d="M423.96,167.107c-2.56,0-4.267-0.853-5.973-2.56l-17.92-17.92c-3.413-3.413-3.413-8.533,0-11.947
		c3.413-3.413,8.533-3.413,11.947,0l17.92,17.92c3.413,3.413,3.413,8.533,0,11.947C428.227,166.253,426.52,167.107,423.96,167.107z"
		/>
	<path d="M400.067,191c-2.56,0-4.267-0.853-5.973-2.56l-17.92-17.92c-3.413-3.413-3.413-8.533,0-11.947
		c3.413-3.413,8.533-3.413,11.947,0l17.92,17.92c3.413,3.413,3.413,8.533,0,11.947C404.333,190.147,401.773,191,400.067,191z"/>
	<path d="M375.32,214.893c-2.56,0-4.267-0.853-5.973-2.56l-17.92-17.92c-3.413-3.413-3.413-8.533,0-11.947
		c3.413-3.413,8.533-3.413,11.947,0l17.92,17.92c3.413,3.413,3.413,8.533,0,11.947C380.44,214.04,377.88,214.893,375.32,214.893z"/>
	<path d="M351.427,239.64c-2.56,0-4.267-0.853-5.973-2.56l-17.92-17.92c-3.413-3.413-3.413-8.533,0-11.947
		c3.413-3.413,8.533-3.413,11.947,0l17.92,17.92c3.413,3.413,3.413,8.533,0,11.947C355.693,238.787,353.987,239.64,351.427,239.64z"
		/>
	<path d="M327.533,263.533c-2.56,0-4.267-0.853-5.973-2.56l-35.84-35.84c-3.413-3.413-3.413-8.533,0-11.947s8.533-3.413,11.947,0
		l35.84,35.84c3.413,3.413,3.413,8.533,0,11.947C331.8,262.68,329.24,263.533,327.533,263.533z"/>
	<path d="M303.64,287.427c-2.56,0-4.267-0.853-5.973-2.56l-17.92-17.92c-3.413-3.413-3.413-8.533,0-11.947
		c3.413-3.413,8.533-3.413,11.947,0l17.92,17.92c3.413,3.413,3.413,8.533,0,11.947C307.907,286.573,305.347,287.427,303.64,287.427z
		"/>
	<path d="M278.893,312.173c-2.56,0-4.267-0.853-5.973-2.56L255,290.84c-3.413-3.413-3.413-8.533,0-11.947
		c3.413-3.413,8.533-3.413,11.947,0l17.92,17.92c3.413,3.413,3.413,8.533,0,11.947C283.16,311.32,281.453,312.173,278.893,312.173z"
		/>
	<path d="M255,336.067c-2.56,0-4.267-0.853-5.973-2.56l-17.92-17.92c-3.413-3.413-3.413-8.533,0-11.947
		c3.413-3.413,8.533-3.413,11.947,0l17.92,17.92c3.413,3.413,3.413,8.533,0,11.947C259.267,335.213,257.56,336.067,255,336.067z"/>
	<path d="M231.107,359.96c-2.56,0-4.267-0.853-5.973-2.56l-17.92-17.92c-3.413-3.413-3.413-8.533,0-11.947
		c3.413-3.413,8.533-3.413,11.947,0l17.92,17.92c3.413,3.413,3.413,8.533,0,11.947C235.373,359.107,232.813,359.96,231.107,359.96z"
		/>
	<path d="M206.36,383.853c-2.56,0-4.267-0.853-5.973-2.56l-35.84-35.84c-3.413-3.413-3.413-8.533,0-11.947
		c3.413-3.413,8.533-3.413,11.947,0l35.84,35.84c3.413,3.413,3.413,8.533,0,11.947C211.48,383,208.92,383.853,206.36,383.853z"/>
	<path d="M182.467,408.6c-2.56,0-4.267-0.853-5.973-2.56l-17.92-17.92c-3.413-3.413-3.413-8.533,0-11.947
		c3.413-3.413,8.533-3.413,11.947,0l17.92,17.92c3.413,3.413,3.413,8.533,0,11.947C186.733,407.747,185.027,408.6,182.467,408.6z"/>
	<path d="M158.573,432.493c-2.56,0-4.267-0.853-5.973-2.56l-17.92-17.92c-3.413-3.413-3.413-8.533,0-11.947
		c3.413-3.413,8.533-3.413,11.947,0l17.92,17.92c3.413,3.413,3.413,8.533,0,11.947C162.84,431.64,160.28,432.493,158.573,432.493z"
		/>
	<path d="M134.68,456.387c-2.56,0-4.267-0.853-5.973-2.56l-18.773-17.92c-3.413-3.413-3.413-8.533,0-11.947
		c3.413-3.413,8.533-3.413,11.947,0l17.92,17.92c3.413,3.413,3.413,8.533,0,11.947C138.947,455.533,136.387,456.387,134.68,456.387z
		"/>
	<path d="M109.933,481.133c-2.56,0-4.267-0.853-5.973-2.56L86.04,459.8c-3.413-3.413-3.413-8.533,0-11.947
		c3.413-3.413,8.533-3.413,11.947,0l17.92,17.92c3.413,3.413,3.413,8.533,0,11.947C114.2,480.28,112.493,481.133,109.933,481.133z"
		/>
</g>
<g>
</g>
<g>
</g>
<g>
</g>
<g>
</g>
<g>
</g>
<g>
</g>
<g>
</g>
<g>
</g>
<g>
</g>
<g>
</g>
<g>
</g>
<g>
</g>
<g>
</g>
<g>
</g>
<g>
</g>
</svg>
