<?xml version="1.0" encoding="utf-8"?>
<!-- Generator: Adobe Illustrator 19.0.0, SVG Export Plug-In . SVG Version: 6.00 Build 0)  -->
<svg version="1.1" id="Capa_1" xmlns="http://www.w3.org/2000/svg" xmlns:xlink="http://www.w3.org/1999/xlink" x="0px" y="0px"
	 viewBox="-5249 3521.6 45.1 45.1" style="enable-background:new -5249 3521.6 45.1 45.1;" xml:space="preserve">
<path d="M-5228.7,3538.1c6.4,0,5.8,0,12.3,0c1.6,0,1.6-2.5,0-2.5c-6.4,0-5.8,0-12.3,0C-5230.3,3535.6-5230.3,3538.1-5228.7,3538.1z"
	/>
<path d="M-5216.4,3542.6c-6.4,0-5.8,0-12.3,0c-1.6,0-1.6,2.5,0,2.5c6.4,0,5.8,0,12.3,0C-5214.8,3545.1-5214.8,3542.6-5216.4,3542.6z
	"/>
<path d="M-5216.4,3549c-6.4,0-5.8,0-12.3,0c-1.6,0-1.6,2.5,0,2.5c6.4,0,5.8,0,12.3,0C-5214.8,3551.5-5214.8,3549-5216.4,3549z"/>
<path d="M-5216.4,3556c-6.4,0-5.8,0-12.3,0c-1.6,0-1.6,2.5,0,2.5c6.4,0,5.8,0,12.3,0C-5214.8,3558.5-5214.8,3556-5216.4,3556z"/>
<path d="M-5234.1,3534.2l-0.4,0.5c-0.4,0.6-0.9,1.3-1.3,1.9c0,0,0,0,0,0l-0.2-0.3c-0.4-0.5-1.3-0.3-1.5,0.3c-0.2,0.3-0.1,0.7,0.2,1
	l0.2,0.3c0.3,0.4,0.6,0.7,1,1.1c0.2,0.2,0.4,0.3,0.7,0.3c0.4,0,0.8-0.3,0.9-0.7c0.3-1,1-1.9,1.6-2.8c0.1-0.2,0.3-0.4,0.4-0.6
	c0.2-0.3,0.2-0.6,0.1-0.9C-5232.8,3533.7-5233.7,3533.6-5234.1,3534.2z"/>
<path d="M-5234.7,3541l-0.4,0.5c-0.4,0.6-0.9,1.3-1.3,1.9c0,0,0,0,0,0l-0.2-0.3c-0.4-0.5-1.3-0.3-1.5,0.3c-0.2,0.3-0.1,0.7,0.2,1
	l0.2,0.3c0.3,0.4,0.6,0.7,1,1.1c0.2,0.2,0.4,0.3,0.7,0.3c0.4,0,0.8-0.3,0.9-0.7c0.3-1,1-1.9,1.6-2.8c0.1-0.2,0.3-0.4,0.4-0.6
	c0.2-0.3,0.2-0.6,0.1-0.9C-5233.4,3540.5-5234.3,3540.4-5234.7,3541z"/>
<path d="M-5234.7,3548l-0.4,0.5c-0.4,0.6-0.9,1.3-1.3,1.9c0,0,0,0,0,0l-0.2-0.3c-0.4-0.5-1.3-0.3-1.5,0.3c-0.2,0.3-0.1,0.7,0.2,1
	l0.2,0.3c0.3,0.4,0.6,0.7,1,1.1c0.2,0.2,0.4,0.3,0.7,0.3c0.4,0,0.8-0.3,0.9-0.7c0.3-1,1-1.9,1.6-2.8c0.1-0.2,0.3-0.4,0.4-0.6
	c0.2-0.3,0.2-0.6,0.1-0.9C-5233.4,3547.5-5234.3,3547.4-5234.7,3548z"/>
<path d="M-5234.7,3555.1l-0.4,0.5c-0.4,0.6-0.9,1.3-1.3,1.9c0,0,0,0,0,0l-0.2-0.3c-0.4-0.5-1.3-0.3-1.5,0.3c-0.2,0.3-0.1,0.7,0.2,1
	l0.2,0.3c0.3,0.4,0.6,0.7,1,1.1c0.2,0.2,0.4,0.3,0.7,0.3c0.4,0,0.8-0.3,0.9-0.7c0.3-1,1-1.9,1.6-2.8c0.1-0.2,0.3-0.4,0.4-0.6
	c0.2-0.3,0.2-0.6,0.1-0.9C-5233.4,3554.6-5234.3,3554.5-5234.7,3555.1z"/>
<path d="M-5215.6,3521.6h-28.3v45.1h34.7v-38.8L-5215.6,3521.6z M-5212.1,3564.4h-29.3v-40.5h24.4l5.8,5.1v34.3L-5212.1,3564.4z"/>
</svg>
